<mxfile host="app.diagrams.net" modified="2023-12-19T21:47:05.166Z" agent="Mozilla/5.0 (Windows NT 10.0; Win64; x64) AppleWebKit/537.36 (KHTML, like Gecko) Chrome/119.0.0.0 Safari/537.36" version="22.1.11" etag="hMcURmp9qVM7NNxIJG0m" type="github">
  <diagram name="Side-1" id="oRK3bkSZ74EdVZnzokHn">
    <mxGraphModel>
      <root>
        <mxCell id="0" />
        <mxCell id="1" parent="0" />
      </root>
    </mxGraphModel>
  </diagram>
</mxfile>
